<?xml version="1.0" encoding="UTF-8" standalone="no"?><svg xmlns="http://www.w3.org/2000/svg" xmlns:xlink="http://www.w3.org/1999/xlink" fill="#000000" height="91.1" preserveAspectRatio="xMidYMid meet" version="1" viewBox="0.0 -0.2 122.6 91.1" width="122.6" zoomAndPan="magnify"><g id="change1_1"><path d="M33.4,60.07c0.99-1.12,1.77-2.11,2.66-2.99c2.97-2.92,5.84-5.96,9.02-8.64c3.43-2.89,8.36-2.11,11.52,1.24 c0.79,0.83,2.18,1.09,3.43,1.67c0.54,1.34-0.74,1.93-1.53,2.68c-7.17,6.81-12.74,14.85-17.57,23.38c-1.85,3.26-3.09,6.88-4.49,10.38 c-1.1,2.75-1.24,3.14-4.24,2.9c-5.35-0.43-10.01-2.25-13.38-6.85c-5.87-7.99-12.2-15.65-16.6-24.62C1.51,57.76,0.98,56.21,0,53.81 c4.39,0.79,8,0.76,10.32,4.25c1.42,2.14,2.87,4.25,4.83,7.17c0.5-3.07,0.81-5.19,1.19-7.29c2.87-15.83,9.24-30.11,21.19-40.99 C48.4,7.04,61.17,0.19,76.48,0c12.86-0.15,23.9,4.89,33.55,12.99c3.86,3.25,7.13,7.22,10.56,10.96c0.89,0.97,1.38,2.29,2.05,3.46 c-0.26,0.25-0.52,0.5-0.78,0.75c-1.58-0.98-3.22-1.88-4.71-2.98c-0.93-0.69-1.65-1.67-2.43-2.55C104.72,11.32,92.09,8.3,77.78,11.38 c-10.93,2.35-19.96,8.24-27.55,16.31c-8.02,8.51-13.46,18.53-16.72,29.75c-0.15,0.5-0.27,1.01-0.35,1.52 C33.14,59.19,33.26,59.44,33.4,60.07z" fill="#000000"/></g></svg>